<svg width="55" height="55" viewBox="0 0 55 55" fill="none" xmlns="http://www.w3.org/2000/svg">
<path d="M10 50.8333V14.1667H19.1667C19.1667 11.6458 20.0642 9.48785 21.8594 7.69271C23.6545 5.89757 25.8125 5 28.3333 5C30.8542 5 33.0122 5.89757 34.8073 7.69271C36.6024 9.48785 37.5 11.6458 37.5 14.1667H46.6667V50.8333H10ZM23.75 14.1667H32.9167C32.9167 12.9062 32.4683 11.8276 31.5715 10.9308C30.6731 10.0325 29.5938 9.58333 28.3333 9.58333C27.0729 9.58333 25.9943 10.0325 25.0975 10.9308C24.1992 11.8276 23.75 12.9062 23.75 14.1667ZM14.5833 46.25H42.0833V18.75H37.5V25.625H32.9167V18.75H23.75V25.625H19.1667V18.75H14.5833V46.25Z" fill="#F8F8F8"/>
</svg>
