<svg width="28" height="24" viewBox="0 0 28 24" fill="none" xmlns="http://www.w3.org/2000/svg">
<path d="M25.677 13.5293L15.8684 23.3379C15.6893 23.5188 15.4762 23.6623 15.2413 23.7603C15.0065 23.8583 14.7545 23.9088 14.5 23.9088C14.2455 23.9088 13.9935 23.8583 13.7587 23.7603C13.5238 23.6623 13.3107 23.5188 13.1316 23.3379L3.06875 13.275C2.3703 12.5784 1.82127 11.7467 1.45524 10.8306C1.0892 9.91462 0.913863 8.93356 0.939933 7.94746C0.966002 6.96136 1.19293 5.99093 1.60685 5.09553C2.02077 4.20013 2.61298 3.39856 3.34727 2.73984C6.16875 0.184765 10.7703 0.426952 13.5918 3.26055L14.5 4.15664L15.6625 3.00625C16.3596 2.31164 17.1898 1.76486 18.1032 1.39865C19.0167 1.03244 19.9946 0.854334 20.9785 0.874999C21.9669 0.89911 22.9398 1.12536 23.8375 1.5398C24.7351 1.95423 25.5383 2.54809 26.1977 3.28477C28.7406 6.10625 28.5105 10.7078 25.677 13.5293Z" fill="#00AA50"/>
</svg>
