<svg width="42" height="35" viewBox="0 0 42 35" fill="none" xmlns="http://www.w3.org/2000/svg">
<path d="M37.9794 0H3.07941C1.3787 0 0 1.3787 0 3.07941C0 4.78012 1.3787 6.15882 3.07941 6.15882H37.9794C39.6801 6.15882 41.0588 4.78012 41.0588 3.07941C41.0588 1.3787 39.6801 0 37.9794 0Z" fill="white"/>
<path d="M37.9794 14.3706H3.07941C1.3787 14.3706 0 15.7493 0 17.45C0 19.1507 1.3787 20.5294 3.07941 20.5294H37.9794C39.6801 20.5294 41.0588 19.1507 41.0588 17.45C41.0588 15.7493 39.6801 14.3706 37.9794 14.3706Z" fill="white"/>
<path d="M37.9794 28.7412H3.07941C1.3787 28.7412 0 30.1199 0 31.8206C0 33.5213 1.3787 34.9 3.07941 34.9H37.9794C39.6801 34.9 41.0588 33.5213 41.0588 31.8206C41.0588 30.1199 39.6801 28.7412 37.9794 28.7412Z" fill="white"/>
</svg>
