<svg xmlns="http://www.w3.org/2000/svg" width="132" height="46" viewBox="0 0 132 46"><style>.style0{fill:none;fill-rule:evenodd}.style1{fill:#000}.style2{fill:#fff}.style3{stroke:#50b848;stroke-width:.5;fill:#50b848}</style><title>Logo_KIWI_pos</title><g class="style0"><path d="M14.095 30.396l-.004 10.3H1.444l.027-39h12.702l-.018 5.6 4.606-5.7h29.683l1.996 9 2.627-9.1H63.3l2.283 8.6 2.24-8.6h20.56l.078 39.1H75.729l-.116-19.3-4.819 19.3h-9.372l-3.324-10.7-3.046 10.7h-9.585l-5.338-19.2-.034 19.3H19l-4.905-10.3zm13.324-1.2l.018-19.6-5.816 7.8 5.798 11.8z" class="style1"/><path d="M87.849 1.996l.075 38.1H76.26l-.138-23.1-5.747 23.1h-8.56l-3.74-12.1-3.428 12.1h-8.774l-6.272-22.6-.04 22.6-20.223.1-5.778-12.2-.005 12.1H1.979l.027-37.9h11.63l-.021 6.7 5.403-6.8h28.996l2.358 10.7 3.099-10.8h9.416l2.7 10.2 2.65-10.2h19.612zm-59.876 5.9l-6.976 9.5 6.955 14.1.021-23.6zm60.943-6.9H67.408l-.207.8-1.623 6.2-1.657-6.3-.21-.7H52.664l-.222.7-1.934 6.8-1.449-6.6-.184-.8H19.019l-.515-.1-.321.5-3.488 4.3.011-3.6.004-1H.936v1l-.027 37.9v1.1h13.717v-1.1l.003-7.4 3.743 7.9.29.6H40.63l.002-1.1.027-14.8 4.185 15.1.217.8H55.457l.22-.8 2.444-8.6 2.673 8.6.233.8H71.213l.201-.8 3.69-14.9.087 14.6.006 1.1h13.799l-.002-1.1-.075-38.1-.003-1zm-66.672 16.5l4.657-6.3-.015 15.7-4.642-9.4z" class="style2"/><path d="M104.384 20.996v-10c0-.8-.4-.8-.5-.8h-.1c-.3 0-.6.1-.6.8v10h-4.3v-10c-.1-.7-.2-.8-.5-.8-.4 0-.6.2-.7.8v10h-4.2v-14.2h4v.8c.6-.7 1.4-1.1 2.3-1.2h.2c1.1 0 2 .5 2.6 1.4.6-.9 1.5-1.4 2.5-1.4 2.1 0 3.6 1.3 3.6 3.2v11.4h-4.3z" class="style1"/><path d="M99.984 6.696c1.1 0 2.1.7 2.5 1.8h.1c.6-1.2 1.5-1.8 2.5-1.8 1.7 0 3.2 1 3.2 2.9v11h-3.5v-9.6c-.1-.6-.3-1.1-.9-1.1h-.1c-.6 0-.9.4-.9 1.1v9.6h-3.6v-9.6c-.1-.6-.3-1.1-.9-1.1-.7 0-1 .4-1 1.1v9.6h-3.6v-13.5h3.3v1.6h.1c.6-1.2 1.7-1.9 2.6-2h.2zm0-.7h-.2c-.7.1-1.4.4-2 .8l.1-.4h-4.8V21.296h5V10.996c0-.4.1-.4.3-.4h.1c0 .1 0 .3.1.4V21.296h5V10.996c0-.4.1-.4.2-.4h.2v.4l.1 9.6v.7h5v-11.7c0-2.1-1.7-3.6-4-3.6-.9 0-1.8.5-2.5 1.2-.6-.7-1.6-1.2-2.6-1.2z" class="style2"/><path d="M110.084 20.996v-14.2h4.3v14.2h-4.3zm0-14.8v-4h4.3v4h-4.3z" class="style1"/><path d="M113.984 2.596v3.2h-3.5v-3.2h3.5zm0 4.5v13.5h-3.5v-13.5h3.5zm.7-5.2h-5v19.4h5v-19.4z" class="style2"/><path d="M121.084 20.996v-10c0-.8-.4-.8-.5-.8h-.1c-.2 0-.6.1-.6.8v10h-4.2v-14.2h4v.7c.5-.6 1.3-1.1 2.1-1.1 2.2 0 3.6 1.3 3.6 3.2v11.4h-4.3z" class="style1"/><path d="M121.884 6.696c1.7 0 3.1 1 3.1 2.9l.1 11h-3.6v-9.6c-.1-.6-.3-1.1-.9-1.1h-.1c-.6 0-.9.4-.9 1.1v9.6h-3.6v-13.5h3.3v1.7h.1c.3-1 1.3-2.1 2.4-2.1h.1zm0-.7c-.7 0-1.4.3-1.9.7v-.3h-4.7V21.296h5V10.996c0-.4.1-.4.2-.4h.2s0 .1.1.4V21.296h5v-11.7c0-2.1-1.7-3.6-4-3.6h.1z" class="style2"/><path d="M126.684 20.996v-14.2h4.3v14.2h-4.3zm0-14.8v-4h4.3v4h-4.3z" class="style1"/><path d="M130.584 2.596v3.2h-3.5v-3.2h3.5zm0 4.5v13.5h-3.5v-13.5h3.5zm.7-5.2h-5v19.4h5v-19.4z" class="style2"/><path d="M93.584 44.696v-18.7h4v.8c.7-.8 1.6-1.2 2.6-1.2 2.1 0 3.4 1.8 3.4 5v4.6c0 4.4-1.8 5.3-3.4 5.4h-.1c-.6 0-1.5-.3-2.2-1.1l-.1 5.2h-4.2zm5-15.3c-.3 0-.7.2-.7 2l-.1 3.2c0 1 .3 2.1.8 2.1.2 0 .3 0 .4-.1.3-.3.4-1.2.4-1.7l-.1-3.6c0-1.1-.1-1.9-.6-1.9h-.1z" class="style1"/><path d="M100.184 25.896c2.4 0 3.1 2.5 3.1 4.7v4.6c0 2.3-.5 4.9-3.1 5h-.1c-.7 0-1.7-.4-2.5-1.7h-.1v5.9h-3.6v-18.1h3.3v1.7h.1c.7-1.4 1.7-2 2.9-2.1zm-1.6 11.2c1.1 0 1.1-1.5 1.1-2.3v-3.5c0-.8 0-2.2-1-2.2s-1.2 1-1.2 2.3v3.2c0 1.2.2 2.5 1.1 2.5zm1.6-11.9c-.9.1-1.6.3-2.2.8l-.1-.4h-4.7v19.5h5v-4.8c.7.5 1.4.6 1.9.6h.1c1.7 0 3.8-1.1 3.8-5.7v-4.6c0-3.3-1.5-5.4-3.8-5.4zm-1.6 11.2c-.2-.1-.4-.6-.4-1.8v-3.2c0-.7.1-1.6.5-1.6.2 0 .3.5.3 1.5v3.6c0 .4 0 1.2-.2 1.4-.1.1-.1.1-.2.1z" class="style2"/><path d="M104.684 40.196v-14.2h4v.8c.6-.8 1.4-1.2 2.5-1.2h.4v5.1l-.5-.1c-.3 0-.6-.1-1-.1-.8 0-1.1.1-1.1 1v8.7h-4.3z" class="style1"/><path d="M111.184 25.896v4.4c-.4-.1-.8-.1-1.1-.1-1 0-1.4.2-1.5 1.3v8.3h-3.5v-13.5h3.3v2.1c.4-1.5 1.3-2.5 2.8-2.5zm.7-.7h-.7c-.8 0-1.6.3-2.1.7v-.3h-4.7V40.496h4.9v-9c.1-.6.1-.6.8-.6.4 0 .6 0 .9.1l.9.1v-5.9z" class="style2"/><g><path d="M112.484 40.196v-14.2h4.3v14.2h-4.3zm0-14.8v-4h4.3v4h-4.3z" class="style1"/><path d="M116.384 21.796v3.2h-3.5v-3.2h3.5zm0 4.5v13.5h-3.5v-13.5h3.5zm.8-5.3h-5v19.5h5v-19.5z" class="style2"/></g><g><path d="M122.984 40.596c-1.8 0-3.1-.5-4-1.4-.8-.8-1.2-2-1.1-3.5v-.4h4.2v.4c-.1.6 0 1.2.3 1.4.1.2.3.3.6.3.6 0 .9-.4.9-1 0-.3-.1-.5-.3-.7-.4-.2-.9-.4-1.4-.7-1.1-.5-2.4-1.1-3.3-2.1-.6-.9-.9-1.7-.9-2.8 0-2.8 1.9-4.5 5-4.5 1.6 0 2.9.5 3.8 1.4.8.8 1.1 2 1.1 3.3v.4h-4l-.1-.3v-.3c-.1-1-.2-1.3-.8-1.3-.7 0-.9.5-.9.8.1.5.4.7 1 1.1.3.1.6.2.9.4 2 .9 4.1 1.8 4.1 4.8s-2 4.7-5.2 4.7h.1z" class="style1"/><path d="M122.984 25.896c2.6 0 4.6 1.4 4.5 4.4h-3.3c-.1-.9-.1-1.8-1.2-1.8-.7 0-1.2.3-1.2 1.1 0 .7.6 1.1 1.1 1.4 2.3 1.1 4.8 1.7 4.8 4.9 0 3.1-2.1 4.3-4.8 4.3-2.8 0-4.8-1.3-4.6-4.5h3.4c0 .9.2 2 1.3 2 .7 0 1.2-.4 1.2-1.3.1-.4-.1-.8-.4-1-1.4-.8-3.5-1.4-4.6-2.8-.6-.7-.9-1.5-.9-2.5 0-2.9 2.2-4.2 4.7-4.2zm0-.7c-3.3 0-5.4 1.9-5.4 4.9 0 1.1.3 2.1 1.1 3 .7.8 1.6 1.4 2.6 1.9h-3.7v.7c-.1 1.6.3 2.9 1.2 3.8.9 1 2.3 1.4 4.1 1.4 3.4 0 5.5-1.9 5.5-5 0-2.9-1.8-4-3.7-4.9h3.5l.1-.7c0-1.4-.4-2.7-1.3-3.6-.9-.9-2.4-1.5-4-1.5zm.2 5.1c-.6-.3-.7-.5-.7-.7 0-.3 0-.4.5-.4.3 0 .4 0 .4.9.1.1.1.2.1.3v.1c-.1-.1-.2-.1-.3-.2zm-.2 6.7c-.2 0-.3-.1-.4-.1-.1-.2-.2-.6-.2-1.2v-.2c.4.2.7.3.9.5.2.1.2.3.2.4 0 .5-.1.6-.5.6z" class="style2"/></g><path d="M4.052 4.596h7.147l-.043 10.4 8.624-10.7h7.843l-9.34 13 10.043 20.8H20.41l-6.47-14.7-2.868 3.1-.024 11.7H4.038l.014-33.6zM30.298 4.396l6.709-.1-.014 33.9h-6.709l.014-33.8zM38.761 4.296h6.976l4.644 17.2 4.267-17.1h6.205l4.508 16.4 4.052-16.5h7.062l-8.025 33.9h-5.253l-5.433-18-4.935 18H47.52l-8.759-33.9zM78.24 4.296h7.244l-.022 34-7.168-.1-.054-33.9z" class="style3"/></g></svg>