<svg width="20" height="22" xmlns="http://www.w3.org/2000/svg"><path d="M10 0c4.411 0 8 3.561 8 7.938 0 3.495-1.827 6.151-3.697 8.572-.998 1.29-3.536 4.515-3.536 4.515L10 22l-.768-.975S6.695 17.8 5.698 16.51C3.827 14.09 2 11.433 2 7.938 2 3.561 5.588 0 10 0zm0 1.849c-3.37 0-6.112 2.72-6.112 6.064 0 2.646 1.22 4.743 3.328 7.47.65.84 1.947 2.496 2.784 3.56a729.05 729.05 0 002.784-3.56c2.108-2.727 3.328-4.824 3.328-7.47 0-3.344-2.741-6.064-6.112-6.064zM10 4a4 4 0 110 8 4 4 0 010-8zm0 2a2 2 0 100 4 2 2 0 000-4z" fill="#2D3340" fill-rule="evenodd"/></svg>