<svg width="21" height="22" xmlns="http://www.w3.org/2000/svg"><path d="M11.74 1c1.95 0 3.473 1.751 3.473 3.848L15.21 4.8h3.143c1.437 0 2.56 1.23 2.641 2.725L21 7.7v8.6h-.827V22H.827v-5.702H0V7.7c0-1.573 1.153-2.898 2.646-2.898h3.142C5.81 2.723 7.326 1 9.26 1zm6.448 15.298h-4.877v.701H7.689l-.001-.701H2.811v3.706h15.378l-.001-3.706zm-6.365-2.293H9.177v1.497h2.646v-1.497zm6.531-7.209H2.646c-.333 0-.662.378-.662.903v6.604h5.704l.001-1.793h5.622v1.793h5.704V7.699c0-.485-.279-.844-.584-.896l-.077-.007zm-6.614-3.8H9.26c-.79 0-1.488.802-1.488 1.852l.001-.048h5.453l-.003-.115c-.065-.915-.662-1.609-1.359-1.683l-.124-.007z" fill="#2D3340" fill-rule="evenodd"/></svg>