<svg width="21" height="22" xmlns="http://www.w3.org/2000/svg"><path d="M10.023 0a3.62 3.62 0 012.633 1.127l.138.156.055.07c.224-.075.454-.128.688-.158l.234-.023.237-.007c1.906 0 3.47 1.46 3.57 3.296l.005.185-.006.145.15.052c1.22.465 2.106 1.564 2.252 2.862l.016.196.005.181c0 .82-.298 1.603-.825 2.222l-.149.164-.104.1.023.215.008.23c0 1.674-1.218 3.072-2.833 3.405l-.182.032-.1.013-.057.095a3.62 3.62 0 01-2.621 1.614l-.217.018-.194.006a3.64 3.64 0 01-1.208-.205l-.228-.088-.062-.03-.018 4.459h3.408V22h-8.77v-1.667l3.68-.001v-3.568l-.116.026-.22.034-.222.021-.225.007a3.625 3.625 0 01-2.922-1.48l-.119-.175-.076-.127-.052.005-.223.007c-1.97 0-3.574-1.558-3.574-3.48 0-.289.037-.575.11-.853l.06-.207.02-.055-.02-.02a3.444 3.444 0 01-.945-1.957l-.02-.222L1 8.082c0-1.176.616-2.254 1.586-2.889l.175-.107.076-.042-.018-.188-.007-.21c0-1.923 1.606-3.481 3.575-3.481.168 0 .334.011.498.034l.245.042.13.032.014-.015A3.584 3.584 0 019.597.025l.212-.019.214-.006zm0 1.673c-.656 0-1.25.324-1.59.855l-.08.137-.383.726-.747-.36a1.904 1.904 0 00-.837-.193c-1.035 0-1.873.814-1.873 1.808 0 .152.02.305.063.457l.048.15.316.849-.883.245c-.799.22-1.357.938-1.357 1.735 0 .538.25 1.046.676 1.39l.133.097.664.444-.413.677a1.757 1.757 0 00-.258.911c0 .994.839 1.809 1.874 1.809.121 0 .243-.012.363-.035l.179-.043.81-.237.245.795c.234.755.975 1.29 1.795 1.29.227 0 .448-.04.655-.114l.129-.054v-.973L5.26 9.873l1.211-1.175 3.08 2.99V8.841L7.187 6.544l1.21-1.175 1.15 1.116v-.106l.006-.038V4.042h1.7v1.316l1.02-1.018 1.211 1.176-2.23 2.221V9.6L14.3 6.643l1.21 1.175-4.258 4.132v1.924l.334.256a1.89 1.89 0 001.163.393c.72 0 1.383-.413 1.69-1.034l.06-.136.218-.558.666.025.142-.005c.918-.07 1.65-.78 1.721-1.662l.006-.14c0-.117-.012-.234-.036-.349l-.044-.172-.18-.583.51-.349c.5-.34.797-.893.798-1.478 0-.897-.693-1.659-1.605-1.786l-.146-.015-1.088-.07.334-1.02c.058-.177.087-.36.087-.545 0-.994-.839-1.808-1.874-1.808-.304 0-.6.07-.868.207l-.157.09-.838.53-.401-.898a1.877 1.877 0 00-1.722-1.094z" fill="#2D3340" fill-rule="evenodd"/></svg>