<svg width="41" height="41" viewBox="0 0 41 41" fill="none" xmlns="http://www.w3.org/2000/svg">
<g clip-path="url(#clip0_1_8)">
<path d="M41 37L30.3 26.4C32.3 23.7 33.5 20.3 33.5 16.6C33.5 7.5 26 0 16.7 0C7.5 0 0 7.5 0 16.6C0 25.8 7.5 33.2 16.7 33.2C20.2 33.2 23.5 32.1 26.1 30.3L36.9 41L41 37ZM4.9 16.6C4.9 10.1 10.2 4.9 16.7 4.9C23.2 4.9 28.5 10.2 28.5 16.6C28.5 23.1 23.2 28.3 16.7 28.3C10.2 28.4 4.9 23.1 4.9 16.6Z" fill="white"/>
</g>
<defs>
<clipPath id="clip0_1_8">
<rect width="41" height="41" fill="white"/>
</clipPath>
</defs>
</svg>
